<?xml version="1.0" standalone="no"?>
<!DOCTYPE svg PUBLIC "-//W3C//DTD SVG 20010904//EN"
 "http://www.w3.org/TR/2001/REC-SVG-20010904/DTD/svg10.dtd">
<svg version="1.0" xmlns="http://www.w3.org/2000/svg"
 width="1024.000000pt" height="1024.000000pt" viewBox="0 0 1024.000000 1024.000000"
 preserveAspectRatio="xMidYMid meet">
<metadata>
Created by potrace 1.14, written by Peter Selinger 2001-2017
</metadata>
<g transform="translate(0.000000,1024.000000) scale(0.100000,-0.100000)"
fill="#000000" stroke="none">
<path d="M4797 10224 c-177 -32 -311 -76 -472 -155 -89 -44 -89 -44 -195 -113
-153 -99 -308 -249 -426 -410 -41 -55 -78 -105 -82 -111 -20 -28 -59 -92 -65
-107 -3 -10 -11 -18 -17 -18 -5 0 -10 -4 -10 -10 0 -5 -14 -33 -31 -62 -57
-96 -71 -122 -135 -249 -35 -69 -64 -131 -64 -137 0 -6 -3 -12 -7 -14 -5 -1
-34 -55 -67 -118 -269 -528 -400 -788 -567 -1120 -107 -212 -194 -387 -195
-390 0 -3 -109 -224 -242 -492 -133 -267 -242 -491 -242 -497 0 -6 -4 -11 -10
-11 -5 0 -9 -3 -8 -7 1 -5 -15 -42 -36 -83 -21 -41 -38 -76 -37 -77 0 -2 -38
-81 -84 -177 -47 -95 -85 -178 -85 -185 0 -6 -4 -11 -10 -11 -5 0 -10 -9 -10
-20 0 -11 -4 -20 -10 -20 -5 0 -10 -4 -10 -10 0 -5 -20 -52 -44 -102 -73 -156
-147 -311 -164 -348 -9 -19 -20 -36 -24 -38 -5 -2 -8 -9 -8 -16 0 -7 -12 -37
-26 -67 -44 -90 -131 -273 -133 -281 -1 -4 -33 -72 -70 -150 -66 -138 -92
-194 -151 -323 -15 -33 -41 -89 -58 -125 -65 -138 -112 -242 -112 -246 0 -3
-11 -21 -24 -42 -14 -20 -39 -71 -57 -112 -18 -41 -47 -106 -65 -145 -54 -118
-94 -206 -94 -210 0 -3 -14 -35 -32 -72 -17 -38 -32 -70 -33 -73 -2 -5 -18
-43 -38 -90 -6 -14 -11 -27 -12 -30 -1 -3 -6 -16 -12 -30 -30 -70 -104 -264
-107 -278 -2 -9 -6 -24 -9 -32 -17 -44 -50 -196 -74 -340 -17 -99 -8 -605 12
-662 2 -7 6 -29 9 -48 3 -19 10 -50 15 -69 6 -19 8 -37 6 -42 -3 -4 -1 -10 5
-14 5 -3 10 -16 10 -29 0 -12 3 -26 7 -30 5 -4 8 -11 8 -14 2 -25 28 -112 34
-112 4 0 8 -6 8 -12 0 -37 126 -301 196 -412 23 -37 101 -151 111 -163 6 -7
16 -18 21 -25 122 -161 331 -355 508 -470 40 -26 77 -51 82 -55 18 -16 275
-143 275 -137 0 4 6 1 14 -5 8 -7 27 -16 43 -21 15 -4 58 -19 95 -33 38 -14
68 -23 68 -20 0 3 7 0 15 -7 8 -7 15 -10 15 -6 0 3 15 0 34 -8 19 -8 36 -12
39 -10 2 3 15 0 29 -5 14 -5 42 -12 62 -15 21 -4 41 -8 45 -11 4 -2 34 -7 67
-10 32 -3 85 -9 117 -14 64 -9 417 -6 457 3 14 4 45 9 70 11 25 3 56 8 70 11
14 3 35 8 48 10 60 11 108 21 134 30 11 3 30 7 41 9 12 1 83 24 157 49 74 26
140 48 145 50 6 2 27 10 47 20 21 9 42 16 48 16 5 0 10 5 10 10 0 6 9 10 19
10 11 0 23 5 26 10 3 6 15 10 26 10 10 0 19 5 19 10 0 6 5 10 11 10 13 0 232
121 240 133 3 5 8 8 10 6 2 -1 24 10 49 26 72 45 155 99 160 105 9 9 69 50 74
50 3 0 20 14 38 30 18 17 38 30 45 30 7 0 13 4 13 8 0 5 19 22 43 39 149 108
412 355 735 690 l33 35 45 -49 c106 -113 298 -304 383 -383 51 -47 103 -94
114 -105 50 -47 204 -171 309 -250 62 -47 118 -89 125 -95 7 -5 16 -10 22 -10
5 0 11 -3 13 -7 3 -9 158 -112 214 -144 19 -10 51 -29 72 -40 76 -44 241 -123
307 -149 11 -4 31 -12 45 -19 74 -33 309 -104 384 -115 21 -4 41 -8 45 -10 3
-2 24 -7 45 -10 21 -4 48 -8 60 -11 22 -5 47 -8 151 -21 121 -16 493 -8 548
11 7 2 30 7 52 9 41 5 80 13 80 16 0 1 9 3 20 5 17 2 87 19 120 29 6 1 29 8
52 15 69 19 222 80 298 118 90 45 229 124 235 133 3 4 16 13 29 20 14 7 30 16
35 21 237 185 314 257 446 419 25 30 48 56 53 58 4 2 7 10 7 18 0 8 3 14 8 14
4 0 21 23 37 51 17 29 37 59 45 69 23 26 160 288 160 305 0 4 7 21 15 38 25
54 74 205 67 211 -3 3 -1 6 4 6 5 0 10 11 10 25 1 14 5 33 9 43 4 9 9 24 10
32 2 8 5 24 8 35 4 19 17 91 23 125 1 8 7 40 13 70 28 132 38 254 36 410 -3
144 -11 228 -30 325 -13 65 -46 191 -56 215 -6 14 -13 36 -16 50 -2 13 -11 39
-19 57 -8 18 -21 48 -29 67 -8 19 -15 37 -15 41 0 7 -7 24 -49 117 -11 26 -21
50 -21 54 0 8 -62 149 -141 322 -16 35 -29 65 -29 66 0 2 -12 30 -27 62 -15
33 -27 61 -28 64 0 3 -15 34 -32 70 -162 342 -213 451 -213 454 0 2 -23 53
-51 112 -28 60 -61 132 -74 159 -13 28 -53 113 -90 190 -37 77 -68 145 -69
150 -3 9 -33 74 -149 315 -22 47 -41 87 -42 90 -1 3 -25 55 -54 115 -30 61
-73 151 -96 200 -78 166 -154 323 -210 435 -30 61 -55 118 -55 125 0 7 -3 15
-7 17 -7 2 -54 92 -58 108 0 3 -50 104 -110 225 -60 121 -109 222 -110 225 -1
8 -564 1129 -665 1325 -51 99 -140 272 -197 385 -248 482 -317 616 -368 705
-19 33 -37 67 -41 75 -35 73 -197 308 -258 373 -14 15 -26 30 -26 33 0 12
-198 202 -255 244 -33 25 -62 47 -65 50 -10 10 -45 31 -62 36 -10 4 -18 10
-18 14 0 12 -241 128 -330 159 -85 29 -179 55 -235 65 -16 3 -41 9 -55 12 -54
14 -473 13 -553 -2z m423 -628 c104 -12 274 -58 286 -77 3 -5 13 -9 22 -9 22
0 162 -82 222 -129 94 -74 216 -208 287 -317 7 -11 23 -35 36 -54 37 -57 81
-139 193 -357 59 -115 111 -214 116 -220 6 -7 7 -13 3 -13 -4 0 -2 -7 5 -15
15 -18 18 -24 173 -330 61 -121 115 -221 119 -223 5 -2 8 -9 8 -16 0 -6 16
-43 36 -81 55 -108 298 -589 299 -595 4 -14 96 -194 106 -206 6 -8 8 -14 5
-14 -4 0 3 -15 16 -32 13 -18 21 -33 19 -33 -2 0 63 -135 144 -300 227 -463
363 -741 410 -840 23 -49 79 -165 124 -258 44 -92 81 -172 81 -177 0 -6 4 -10
10 -10 5 0 9 -3 8 -7 -1 -5 12 -37 29 -73 17 -36 61 -128 97 -205 37 -77 80
-167 96 -200 84 -176 145 -306 167 -355 14 -30 54 -114 88 -185 34 -72 68
-147 76 -168 7 -20 17 -37 21 -37 4 0 8 -5 8 -11 0 -6 14 -41 31 -78 17 -36
40 -86 51 -111 12 -25 61 -128 110 -230 49 -102 93 -194 98 -205 5 -11 22 -50
39 -88 17 -37 31 -69 31 -72 0 -2 18 -41 39 -85 22 -44 37 -80 34 -80 -3 0 -1
-6 5 -12 14 -17 110 -247 127 -305 8 -26 12 -50 9 -55 -3 -4 -2 -8 3 -8 4 0 9
-10 9 -22 1 -13 4 -36 7 -53 29 -154 41 -279 41 -440 1 -193 -6 -269 -36 -380
-5 -22 -12 -47 -13 -55 -2 -8 -13 -40 -23 -72 -11 -31 -18 -59 -15 -62 4 -3 1
-6 -5 -6 -7 0 -12 -5 -12 -12 0 -26 -117 -247 -152 -288 -10 -11 -18 -23 -18
-26 0 -6 -63 -86 -95 -120 -11 -12 -27 -30 -36 -40 -16 -20 -133 -129 -165
-154 -40 -31 -124 -90 -130 -90 -3 0 -19 -9 -34 -20 -68 -49 -270 -136 -370
-161 -67 -16 -60 -14 -90 -22 -27 -7 -69 -14 -165 -24 -87 -9 -380 -4 -380 7
0 1 -16 3 -35 6 -19 2 -46 6 -60 10 -14 3 -36 8 -50 10 -59 9 -253 71 -302 96
-21 10 -38 16 -38 13 0 -21 -431 230 -523 305 -7 5 -57 43 -112 83 -55 40
-107 80 -115 88 -9 8 -40 34 -70 59 -30 24 -56 48 -58 52 -2 5 -7 8 -11 8 -12
0 -122 101 -276 255 -169 169 -245 255 -245 275 0 8 15 31 33 51 17 20 43 51
56 70 13 19 30 41 38 49 7 8 47 60 88 115 41 55 79 105 85 112 5 7 10 16 10
22 0 5 4 11 8 13 5 2 50 64 100 138 50 74 96 140 102 147 5 7 15 24 22 38 6
14 15 25 20 25 4 0 8 5 8 11 0 6 14 30 30 54 17 24 30 46 30 50 0 3 11 21 25
39 14 18 25 38 25 44 0 6 6 17 13 24 6 7 25 38 41 68 16 30 32 57 35 60 3 3
24 41 46 85 22 44 44 83 48 86 5 3 8 9 8 13 -1 3 21 51 48 106 27 55 47 100
44 100 -3 0 -1 6 5 13 5 6 22 41 37 77 15 36 32 76 38 90 6 14 11 27 12 30 5
14 18 48 27 70 6 14 21 59 35 100 13 41 27 82 30 90 7 16 9 25 17 55 3 11 15
54 26 95 12 41 23 84 25 94 26 117 45 220 50 261 3 28 8 66 11 85 3 19 7 85 9
146 2 61 5 115 6 120 1 5 1 11 0 14 -1 3 -3 59 -6 125 -3 66 -7 131 -10 145
-3 14 -8 39 -11 55 -16 93 -81 310 -109 365 -7 14 -32 63 -55 110 -49 98 -115
201 -179 280 -56 69 -193 206 -246 245 -22 16 -42 33 -45 36 -31 38 -373 229
-411 229 -9 0 -19 3 -23 8 -4 4 -11 7 -14 8 -4 0 -14 3 -22 7 -74 28 -252 71
-355 84 -119 15 -461 7 -550 -12 -11 -3 -31 -7 -45 -9 -14 -3 -35 -7 -47 -10
-13 -4 -31 -8 -42 -10 -10 -2 -35 -9 -54 -14 -20 -6 -38 -7 -41 -4 -3 3 -6 0
-6 -6 0 -7 -7 -12 -16 -12 -19 0 -203 -73 -261 -103 -71 -37 -178 -99 -183
-106 -3 -3 -25 -20 -49 -36 -85 -57 -250 -213 -328 -310 -47 -59 -123 -173
-123 -185 0 -5 -3 -10 -7 -12 -20 -8 -126 -257 -155 -363 -28 -103 -28 -105
-39 -170 -10 -58 -14 -87 -24 -190 -8 -70 -12 -328 -6 -340 3 -5 6 -23 7 -40
2 -40 12 -124 19 -155 2 -14 7 -36 9 -50 2 -14 12 -56 21 -95 9 -38 18 -78 20
-87 8 -39 37 -144 45 -163 8 -18 19 -59 26 -93 1 -8 6 -21 10 -30 4 -9 8 -19
9 -22 1 -3 4 -12 7 -20 3 -8 16 -44 28 -80 21 -60 50 -131 96 -235 9 -22 18
-42 18 -45 5 -18 92 -196 160 -325 66 -126 109 -200 204 -353 12 -20 25 -44
29 -52 4 -8 9 -17 13 -20 3 -3 26 -36 49 -75 24 -38 48 -72 53 -73 4 -2 8 -8
8 -13 0 -14 238 -352 327 -464 39 -49 67 -85 78 -98 72 -87 72 -87 20 -143
-11 -12 -49 -55 -85 -95 -171 -192 -412 -413 -616 -565 -43 -32 -81 -61 -84
-64 -3 -3 -22 -16 -42 -30 -21 -14 -38 -28 -38 -32 0 -5 -5 -8 -11 -8 -6 0
-33 -16 -59 -35 -26 -19 -52 -35 -58 -35 -6 0 -16 -8 -21 -17 -6 -10 -11 -15
-11 -11 0 4 -23 -9 -52 -27 -60 -40 -287 -154 -317 -160 -11 -2 -28 -8 -38
-13 -23 -13 -163 -60 -200 -67 -39 -8 -58 -13 -58 -15 0 -1 -15 -3 -33 -5 -19
-2 -41 -7 -50 -10 -10 -4 -28 -9 -42 -10 -14 -1 -56 -6 -95 -11 -77 -9 -288
-9 -350 0 -22 3 -58 8 -79 11 -208 29 -476 146 -671 294 -77 59 -295 278 -295
297 0 4 -15 27 -34 53 -120 167 -214 407 -253 646 -12 76 -6 470 7 470 1 0 3
11 5 25 4 42 33 156 61 243 15 45 27 88 27 95 0 6 4 12 9 12 4 0 8 7 8 16 0 9
6 30 14 47 8 18 40 93 71 167 75 174 90 209 196 436 10 22 19 46 19 52 0 7 5
12 10 12 6 0 10 9 10 20 0 11 5 20 10 20 6 0 9 3 8 8 -1 4 3 16 9 27 6 11 58
124 116 250 133 292 153 335 190 415 16 36 47 102 68 148 22 46 39 87 39 93 0
5 4 9 10 9 5 0 9 3 8 8 -2 9 10 36 71 164 28 59 51 112 51 117 0 6 5 11 10 11
6 0 10 7 10 16 0 9 9 33 19 53 11 20 25 51 33 69 7 17 16 32 20 32 5 0 8 6 8
13 0 7 20 54 45 105 25 50 45 93 45 95 0 4 136 288 228 477 26 52 47 97 47
100 1 3 34 71 73 152 40 82 72 152 72 158 0 5 5 10 10 10 6 0 10 5 10 10 0 6
70 153 155 327 85 174 155 320 155 324 0 5 5 9 10 9 6 0 10 4 10 10 0 5 11 34
25 65 14 30 25 58 24 61 0 4 4 10 9 13 11 7 151 290 150 305 0 5 5 12 10 15 6
3 28 42 49 86 21 44 61 123 88 175 27 52 50 97 51 100 1 3 5 15 9 28 4 12 11
22 16 22 5 0 8 3 7 8 -1 4 19 48 44 97 45 87 226 442 363 710 123 242 174 338
184 348 6 6 11 19 11 29 0 10 5 18 10 18 6 0 10 5 10 11 0 11 97 178 109 189
3 3 18 23 33 45 15 22 40 54 55 71 15 17 44 49 63 71 76 87 186 171 304 230
70 35 206 86 206 77 0 -3 8 -1 18 5 20 10 87 22 155 26 26 1 50 4 52 6 5 5
100 2 165 -5z m5 -3741 c33 -3 71 -8 85 -11 14 -3 34 -7 45 -9 36 -5 149 -46
220 -80 79 -37 162 -92 236 -156 52 -44 163 -174 188 -218 51 -91 60 -109 54
-115 -4 -3 -2 -6 4 -6 5 0 16 -19 23 -42 8 -24 17 -47 21 -53 4 -5 7 -14 8
-20 0 -5 5 -28 11 -50 22 -81 37 -238 34 -357 -2 -105 -10 -223 -14 -223 -3 0
-9 -42 -12 -75 -2 -19 -5 -37 -8 -40 -3 -3 -11 -32 -18 -65 -16 -74 -20 -89
-22 -92 -3 -3 -2 -3 -14 -53 -5 -19 -13 -46 -19 -60 -6 -14 -11 -27 -12 -30
-4 -20 -41 -121 -53 -150 -9 -19 -17 -40 -18 -46 -1 -7 -13 -35 -28 -63 -14
-28 -23 -51 -21 -51 2 0 -23 -54 -56 -119 -32 -66 -59 -124 -59 -129 0 -6 -3
-12 -8 -14 -4 -1 -25 -37 -46 -78 -21 -41 -41 -77 -45 -80 -3 -3 -13 -18 -21
-35 -26 -52 -137 -231 -220 -356 -44 -66 -80 -123 -80 -128 0 -5 -7 -11 -15
-15 -8 -3 -15 -10 -15 -16 0 -6 -6 -17 -12 -24 -7 -8 -20 -24 -28 -36 -8 -13
-24 -35 -35 -49 -11 -14 -36 -48 -55 -76 -18 -27 -36 -52 -40 -55 -3 -3 -25
-31 -49 -62 -24 -32 -46 -58 -50 -58 -4 0 -38 41 -76 91 -37 50 -74 97 -82
104 -7 8 -13 16 -13 20 0 5 -96 140 -128 180 -24 31 -180 271 -180 279 0 5 -4
12 -10 15 -13 9 -142 225 -142 239 0 7 -4 12 -8 12 -4 0 -13 12 -20 28 -6 15
-36 74 -67 130 -30 57 -55 110 -55 118 0 8 -6 17 -13 20 -8 3 -14 10 -14 17 0
7 -12 37 -26 67 -87 187 -191 508 -212 656 -4 22 -8 46 -10 54 -18 64 -25 357
-11 450 4 25 8 56 10 70 11 108 109 344 176 423 6 6 20 23 31 37 52 63 68 78
129 130 36 30 67 58 68 63 2 4 8 7 14 7 5 0 22 8 36 19 48 33 184 99 220 107
8 1 21 6 30 10 22 9 31 12 67 19 17 3 38 8 47 11 33 10 65 14 148 20 47 4 86
7 87 9 3 2 63 -2 148 -10z"/>
</g>
</svg>
